# xmcd
#
# Track frame offsets:
#       150
#       13642
#       32005
#       49823
#       77635
#       112474
#       134335
#       152239
#       188277
#       206061
#       232175
#       260726
#       299525
#
# Disc length: 4366 seconds
#
# Revision: 0
# Processed by: cddbd v1.5.2PL0 Copyright (c) Steve Scherf et al.
# Submitted via: WaveLab 4.01
#
DISCID=c0110c0d
DTITLE=Yuri Naumov - Russian Blues Live
DYEAR=2006
DGENRE=Blues
TTITLE0=Sneaky Blues
TTITLE1=Nothing Like the Blues
TTITLE2=Starry Night
TTITLE3=Night on the Highway
TTITLE4=The Return of the Prodigal Son
TTITLE5=Ping-Pong Blues
TTITLE6=Love
TTITLE7=Born to Play
TTITLE8=Swinging Cat
TTITLE9=Carl the King of Rock'n'Roll
TTITLE10=New York 5th Avenue
TTITLE11=Baby Blues
TTITLE12=I Feel Fine
EXTD=
EXTT0=
EXTT1=
EXTT2=
EXTT3=
EXTT4=
EXTT5=
EXTT6=
EXTT7=
EXTT8=
EXTT9=
EXTT10=
EXTT11=
EXTT12=
PLAYORDER=
